<svg width="288" height="288" viewBox="0 0 288 288" fill="none" xmlns="http://www.w3.org/2000/svg">
<g clip-path="url(#clip0_2070_7)">
<path d="M154.675 77.2338C155.012 77.4288 155.272 77.7322 155.414 78.0943C155.556 78.4565 155.57 78.856 155.456 79.2276L149.265 99.3438H160.688C161.023 99.3437 161.352 99.4418 161.632 99.6262C161.913 99.8106 162.133 100.073 162.266 100.381C162.399 100.689 162.439 101.03 162.381 101.36C162.323 101.691 162.169 101.997 161.939 102.242L134.439 131.46C134.173 131.743 133.819 131.928 133.434 131.984C133.05 132.04 132.658 131.964 132.322 131.768C131.986 131.573 131.727 131.27 131.586 130.908C131.444 130.546 131.43 130.147 131.544 129.776L137.735 109.656H126.313C125.977 109.656 125.648 109.558 125.368 109.374C125.087 109.19 124.867 108.927 124.734 108.619C124.601 108.311 124.561 107.97 124.619 107.64C124.677 107.309 124.831 107.003 125.061 106.758L152.561 77.5397C152.827 77.2572 153.181 77.0728 153.564 77.0167C153.948 76.9605 154.34 77.0358 154.675 77.2304V77.2338Z" fill="url(#paint0_linear_2070_7)"/>
</g>
<path d="M170.762 26.9088C193.621 32.1688 214.438 44.0133 230.638 60.9777C246.838 77.9421 257.711 99.2825 261.912 122.36C266.114 145.438 263.459 169.241 254.277 190.826C245.095 212.411 229.788 230.832 210.249 243.811L203.609 233.815C221.194 222.134 234.971 205.556 243.235 186.129C251.499 166.702 253.888 145.279 250.107 124.509C246.325 103.74 236.54 84.5332 221.96 69.2652C207.38 53.9972 188.645 43.3372 168.071 38.6032L170.762 26.9088Z" fill="#929292" fill-opacity="0.24"/>
<path d="M75.5698 242.531C52.6253 226.654 35.9307 203.278 28.3575 176.423C20.7844 149.568 22.8061 120.914 34.0749 95.3886C45.3437 69.8633 65.1552 49.0626 90.1016 36.5645C115.048 24.0663 143.57 20.652 170.762 26.9088L168.071 38.6032C143.598 32.9721 117.929 36.045 95.4768 47.2933C73.0249 58.5416 55.1946 77.2622 45.0527 100.235C34.9107 123.208 33.0912 148.997 39.9071 173.166C46.7229 197.335 61.748 218.374 82.3981 232.663L75.5698 242.531Z" fill="#FE9902"/>
<defs>
<linearGradient id="paint0_linear_2070_7" x1="143.5" y1="76.9985" x2="143.5" y2="132.002" gradientUnits="userSpaceOnUse">
<stop stop-color="#F9B53E"/>
<stop offset="1" stop-color="#FE9126"/>
</linearGradient>
<clipPath id="clip0_2070_7">
<rect width="55" height="55" fill="white" transform="translate(116 77)"/>
</clipPath>
</defs>
</svg>
